<?xml version="1.0" encoding="UTF-8"?>
<svg width="24px" height="24px" viewBox="0 0 24 24" version="1.1" xmlns="http://www.w3.org/2000/svg" xmlns:xlink="http://www.w3.org/1999/xlink">
    
    <defs></defs>
    <g id="Chat-Inversed" stroke="none" stroke-width="1" fill="none" fill-rule="evenodd">
        <path d="M18.4814815,2.74074074 C20.0555556,2.74074074 21.2592593,3.94444444 21.2592593,5.51851852 L21.2592593,14.7777778 C21.2592593,16.3518519 20.0555556,17.5555556 18.4814815,17.5555556 L7.74074074,17.5555556 L4.31481481,20.9814815 C4.12962963,21.1666667 3.94444444,21.2592593 3.66666667,21.2592593 C3.57407407,21.2592593 3.38888889,21.2592593 3.2962963,21.1666667 C2.92592593,21.0740741 2.74074074,20.7037037 2.74074074,20.3333333 L2.74074074,5.51851852 C2.74074074,3.94444444 3.94444444,2.74074074 5.51851852,2.74074074 L18.4814815,2.74074074 Z M8.11111111,13.0555556 L11.4444444,13.0555556 C11.7205868,13.0555556 11.9444444,12.8316979 11.9444444,12.5555556 C11.9444444,12.2794132 11.7205868,12.0555556 11.4444444,12.0555556 L8.11111111,12.0555556 C7.83496874,12.0555556 7.61111111,12.2794132 7.61111111,12.5555556 C7.61111111,12.8316979 7.83496874,13.0555556 8.11111111,13.0555556 Z M8.11111111,8.61111111 L13.6666667,8.61111111 C13.942809,8.61111111 14.1666667,8.38725349 14.1666667,8.11111111 C14.1666667,7.83496874 13.942809,7.61111111 13.6666667,7.61111111 L8.11111111,7.61111111 C7.83496874,7.61111111 7.61111111,7.83496874 7.61111111,8.11111111 C7.61111111,8.38725349 7.83496874,8.61111111 8.11111111,8.61111111 Z M8.11111111,10.8333333 L15.8888889,10.8333333 C16.1650313,10.8333333 16.3888889,10.6094757 16.3888889,10.3333333 C16.3888889,10.057191 16.1650313,9.83333333 15.8888889,9.83333333 L8.11111111,9.83333333 C7.83496874,9.83333333 7.61111111,10.057191 7.61111111,10.3333333 C7.61111111,10.6094757 7.83496874,10.8333333 8.11111111,10.8333333 Z" id="Combined-Shape" fill="#000000"></path>
    </g>
</svg>