<?xml version="1.0" encoding="UTF-8"?>
<svg width="24px" height="24px" viewBox="0 0 24 24" version="1.1" xmlns="http://www.w3.org/2000/svg" xmlns:xlink="http://www.w3.org/1999/xlink">
    
    <defs></defs>
    <g id="Chat" stroke="none" stroke-width="1" fill="none" fill-rule="evenodd">
        <path d="M3.71282669,20.4518262 C3.72028167,20.4457359 3.73001449,20.434911 3.74912939,20.4157961 L7.40936989,16.7555556 L18.4814815,16.7555556 C19.6137278,16.7555556 20.4592593,15.9100241 20.4592593,14.7777778 L20.4592593,5.51851852 C20.4592593,4.38627224 19.6137278,3.54074074 18.4814815,3.54074074 L5.51851852,3.54074074 C4.38627224,3.54074074 3.54074074,4.38627224 3.54074074,5.51851852 L3.54074074,20.3333333 C3.54074074,20.4017493 3.54176426,20.4034125 3.4903248,20.3905527 L3.70529593,20.4442954 L3.71282669,20.4518262 Z" id="Path" stroke="#000000" stroke-width="1.6"></path>
        <path d="M8.11111111,12.5555556 L11.4444444,12.5555556" id="Line-3-Copy-3" stroke="#000000" stroke-linecap="round"></path>
        <path d="M8.11111111,8.11111111 L13.6666667,8.11111111" id="Line-3-Copy-4" stroke="#000000" stroke-linecap="round"></path>
        <path d="M8.11111111,10.3333333 L15.8888889,10.3333333" id="Line-3-Copy-5" stroke="#000000" stroke-linecap="round"></path>
    </g>
</svg>