<?xml version="1.0" encoding="UTF-8"?>
<svg width="24px" height="24px" viewBox="0 0 24 24" version="1.1" xmlns="http://www.w3.org/2000/svg" xmlns:xlink="http://www.w3.org/1999/xlink">
    
    <defs>
        <path d="M10.96,13.376 L10.96,12.456 C10.96,10.6373214 9.87046169,9.07311815 8.30850128,8.3805064 C8.71178591,8.13888987 9.18367322,8 9.688,8 L13.816,8 C15.3005414,8 16.504,9.20345859 16.504,10.688 L16.504,11.501 C16.504,12.5365339 15.6645339,13.376 14.629,13.376 L10.96,13.376 Z" id="path-1"></path>
    </defs>
    <g id="Contacts-Inversed" stroke="none" stroke-width="1" fill="none" fill-rule="evenodd">
        <g id="Group-49" transform="translate(5.000000, 4.000000)">
            <ellipse id="Oval-5-Copy-5" stroke="#000000" stroke-width="1.1" fill="#000000" cx="11.2176" cy="3.688" rx="2.2176" ry="2.688"></ellipse>
            <g id="Combined-Shape">
                <use fill="#000000" fill-rule="evenodd" xlink:href="#path-1"></use>
                <path stroke="#000000" stroke-width="1.6" d="M11.76,12.576 L14.629,12.576 C15.2227061,12.576 15.704,12.0947061 15.704,11.501 L15.704,10.688 C15.704,9.64528639 14.8587136,8.8 13.816,8.8 L10.2809677,8.8 C11.2078852,9.75790196 11.76,11.05653 11.76,12.456 L11.76,12.576 Z"></path>
            </g>
            <ellipse id="Oval-5-Copy-8" stroke="#000000" stroke-width="1.1" fill="#000000" cx="3.6239999" cy="3.456" rx="3.024" ry="3.456"></ellipse>
        </g>
        <path d="M5.456,13 L11.504,13 C13.4126961,13 14.96,14.5473039 14.96,16.456 L14.96,17.412 C14.96,18.7927119 13.8407119,19.912 12.46,19.912 L4.5,19.912 C3.11928813,19.912 2,18.7927119 2,17.412 L2,16.456 C2,14.5473039 3.5473039,13 5.456,13 Z" id="Rectangle-3-Copy-13" fill="#000000"></path>
    </g>
</svg>