<?xml version="1.0" encoding="UTF-8"?>
<svg width="24px" height="24px" viewBox="0 0 24 24" version="1.1" xmlns="http://www.w3.org/2000/svg" xmlns:xlink="http://www.w3.org/1999/xlink">
    
    <defs></defs>
    <g id="Contacts" stroke="none" stroke-width="1" fill="none" fill-rule="evenodd">
        <g id="Group-33-Copy" transform="translate(2.000000, 4.000000)" stroke="#000000" stroke-width="1.6">
            <g id="Group-2">
                <ellipse id="Oval-5-Copy-3" cx="6.81818182" cy="3.63636364" rx="3.18181818" ry="3.63636364"></ellipse>
                <g id="Group-28-Copy-3" transform="translate(0.000000, 0.909091)">
                    <ellipse id="Oval-5-Copy-5" cx="15" cy="2.82828283" rx="2.33333333" ry="2.82828283"></ellipse>
                    <path d="M12.8363636,12.8636364 L12.8363636,11.8565657 L18.125,11.8565657 C18.7187061,11.8565657 19.2,11.3752718 19.2,10.7815657 L19.2,9.82828283 C19.2,8.70809315 18.2919068,7.8 17.1717172,7.8 L12.8282828,7.8 C12.1805064,7.8 11.5849009,8.10476478 11.2035121,8.61389553 L10.915312,8.9986251 L10.4403163,8.92476573 C10.2957849,8.90229186 10.1487598,8.89090909 10,8.89090909 L3.63636364,8.89090909 C2.06988326,8.89090909 0.8,10.1607923 0.8,11.7272727 L0.8,12.8636364 C0.8,13.8025204 1.56111593,14.5636364 2.5,14.5636364 L11.1363636,14.5636364 C12.0752477,14.5636364 12.8363636,13.8025204 12.8363636,12.8636364 Z" id="Combined-Shape"></path>
                </g>
            </g>
        </g>
        <path d="M5.63636364,13.8 C4.06988326,13.8 2.8,15.0698833 2.8,16.6363636 L2.8,17.7727273 C2.8,18.7116113 3.56111593,19.4727273 4.5,19.4727273 L13.1363636,19.4727273 C14.0752477,19.4727273 14.8363636,18.7116113 14.8363636,17.7727273 L14.8363636,16.6363636 C14.8363636,15.0698833 13.5664804,13.8 12,13.8 L5.63636364,13.8 Z" id="Rectangle-3-Copy-3" stroke="#000000" stroke-width="1.6"></path>
    </g>
</svg>