<?xml version="1.0" encoding="UTF-8"?>
<svg width="24px" height="24px" viewBox="0 0 24 24" version="1.1" xmlns="http://www.w3.org/2000/svg" xmlns:xlink="http://www.w3.org/1999/xlink">
    
    <defs>
        <path d="M17.0588235,7.64705882 L17.0588235,17.826087 C17.0588235,19.026706 16.1041366,20 14.9264706,20 L2.13235294,20 C0.954686931,20 0,19.026706 0,17.826087 L0,2.17391304 C0,0.973294022 0.954686931,0 2.13235294,0 L8.82352941,0 L8.82352941,4.80968858 C8.82352941,6.3767249 10.1732592,7.64705882 11.8382353,7.64705882 L17.0588235,7.64705882 Z M10.4235294,0.191904048 L16.1667474,6.04705882 L11.8382353,6.04705882 C11.0359572,6.04705882 10.4235294,5.47065618 10.4235294,4.80968858 L10.4235294,0.191904048 Z M4.70588235,7.55882353 L7.05882353,7.55882353 C7.3349659,7.55882353 7.55882353,7.3349659 7.55882353,7.05882353 C7.55882353,6.78268115 7.3349659,6.55882353 7.05882353,6.55882353 L4.70588235,6.55882353 C4.42973998,6.55882353 4.20588235,6.78268115 4.20588235,7.05882353 C4.20588235,7.3349659 4.42973998,7.55882353 4.70588235,7.55882353 Z M4.70588235,15.2058824 L12.3529412,15.2058824 C12.6290836,15.2058824 12.8529412,14.9820247 12.8529412,14.7058824 C12.8529412,14.42974 12.6290836,14.2058824 12.3529412,14.2058824 L4.70588235,14.2058824 C4.42973998,14.2058824 4.20588235,14.42974 4.20588235,14.7058824 C4.20588235,14.9820247 4.42973998,15.2058824 4.70588235,15.2058824 Z M4.70588235,11.3823529 L12.3529412,11.3823529 C12.6290836,11.3823529 12.8529412,11.1584953 12.8529412,10.8823529 C12.8529412,10.6062106 12.6290836,10.3823529 12.3529412,10.3823529 L4.70588235,10.3823529 C4.42973998,10.3823529 4.20588235,10.6062106 4.20588235,10.8823529 C4.20588235,11.1584953 4.42973998,11.3823529 4.70588235,11.3823529 Z" id="path-1"></path>
    </defs>
    <g id="Documents-Inversed" stroke="none" stroke-width="1" fill="none" fill-rule="evenodd">
        <g id="Group-2" transform="translate(3.000000, 2.000000)">
            <g id="Group">
                <g id="Group-10">
                    <g id="Combined-Shape">
                        <use fill="#000000" fill-rule="evenodd" xlink:href="#path-1"></use>
                        <path stroke="#000000" stroke-width="1.6" d="M16.2588235,8.44705882 L11.8382353,8.44705882 C9.74191021,8.44705882 8.02352941,6.82975925 8.02352941,4.80968858 L8.02352941,0.8 L2.13235294,0.8 C1.40000802,0.8 0.8,1.41170232 0.8,2.17391304 L0.8,17.826087 C0.8,18.5882977 1.40000802,19.2 2.13235294,19.2 L14.9264706,19.2 C15.6588155,19.2 16.2588235,18.5882977 16.2588235,17.826087 L16.2588235,8.44705882 Z M11.2235294,2.14994566 L11.2235294,4.80968858 C11.2235294,5.02199307 11.4750705,5.24705882 11.8382353,5.24705882 L14.2614331,5.24705882 L11.2235294,2.14994566 Z M4.70588235,8.35882353 C3.98791218,8.35882353 3.40588235,7.7767937 3.40588235,7.05882353 C3.40588235,6.34085335 3.98791218,5.75882353 4.70588235,5.75882353 L7.05882353,5.75882353 C7.7767937,5.75882353 8.35882353,6.34085335 8.35882353,7.05882353 C8.35882353,7.7767937 7.7767937,8.35882353 7.05882353,8.35882353 L4.70588235,8.35882353 Z M4.70588235,16.0058824 C3.98791218,16.0058824 3.40588235,15.4238525 3.40588235,14.7058824 C3.40588235,13.9879122 3.98791218,13.4058824 4.70588235,13.4058824 L12.3529412,13.4058824 C13.0709114,13.4058824 13.6529412,13.9879122 13.6529412,14.7058824 C13.6529412,15.4238525 13.0709114,16.0058824 12.3529412,16.0058824 L4.70588235,16.0058824 Z M4.70588235,12.1823529 C3.98791218,12.1823529 3.40588235,11.6003231 3.40588235,10.8823529 C3.40588235,10.1643828 3.98791218,9.58235294 4.70588235,9.58235294 L12.3529412,9.58235294 C13.0709114,9.58235294 13.6529412,10.1643828 13.6529412,10.8823529 C13.6529412,11.6003231 13.0709114,12.1823529 12.3529412,12.1823529 L4.70588235,12.1823529 Z"></path>
                    </g>
                </g>
            </g>
        </g>
    </g>
</svg>