<?xml version="1.0" encoding="UTF-8"?>
<svg width="24px" height="24px" viewBox="0 0 24 24" version="1.1" xmlns="http://www.w3.org/2000/svg" xmlns:xlink="http://www.w3.org/1999/xlink">
    
    <defs></defs>
    <g id="Latest-Inversed" stroke="none" stroke-width="1" fill="none" fill-rule="evenodd">
        <path d="M12,21 C7.02943725,21 3,16.9705627 3,12 C3,7.02943725 7.02943725,3 12,3 C16.9705627,3 21,7.02943725 21,12 C21,16.9705627 16.9705627,21 12,21 Z M15.2656854,15.0343146 L12.8,12.5686292 L12.8,7.5 C12.8,7.0581722 12.4418278,6.7 12,6.7 C11.5581722,6.7 11.2,7.0581722 11.2,7.5 L11.2,13.2313708 L14.1343146,16.1656854 C14.446734,16.4781049 14.953266,16.4781049 15.2656854,16.1656854 C15.5781049,15.853266 15.5781049,15.346734 15.2656854,15.0343146 Z" id="Combined-Shape" fill="#000000"></path>
    </g>
</svg>